<?xml version="1.0" encoding="utf-8"?>
<!-- Generator: Adobe Illustrator 16.0.0, SVG Export Plug-In . SVG Version: 6.00 Build 0)  -->
<!DOCTYPE svg PUBLIC "-//W3C//DTD SVG 1.1//EN" "http://www.w3.org/Graphics/SVG/1.1/DTD/svg11.dtd">
<svg version="1.1" id="Layer_1" xmlns="http://www.w3.org/2000/svg" xmlns:xlink="http://www.w3.org/1999/xlink" x="0px" y="0px"
	 width="149px" height="35px" viewBox="0 0 149 35" enable-background="new 0 0 149 35" xml:space="preserve">
<g>
	<g>
		<g>
			<path fill="#02B843" d="M20.104,32.415c-0.151,0-0.305-0.013-0.459-0.04l-17.47-3.08c-1.429-0.253-2.387-1.621-2.135-3.051
				l0.674-3.814c0.067-0.389,0.403-0.672,0.799-0.672c0.046,0,0.093,0.004,0.141,0.013c0.44,0.079,0.735,0.501,0.659,0.94
				l-0.674,3.815c-0.097,0.548,0.271,1.072,0.818,1.169l17.47,3.08c0.059,0.011,0.117,0.016,0.176,0.016
				c0.49,0,0.908-0.351,0.993-0.834l2.764-15.507c0.067-0.388,0.403-0.671,0.799-0.671c0.046,0,0.094,0.004,0.141,0.013
				c0.441,0.077,0.736,0.5,0.659,0.94L22.695,30.24C22.474,31.5,21.383,32.415,20.104,32.415z M18.975,26.992
				c-0.047,0-0.095-0.004-0.143-0.014l-2.978-0.523c-0.44-0.078-0.736-0.5-0.658-0.94c0.068-0.389,0.404-0.671,0.799-0.671
				c0.047,0,0.094,0.004,0.142,0.012l2.978,0.525c0.44,0.078,0.735,0.499,0.658,0.94C19.704,26.711,19.368,26.992,18.975,26.992
				L18.975,26.992z M13.356,26.002c-0.047,0-0.095-0.005-0.143-0.014l-2.977-0.523c-0.214-0.039-0.4-0.157-0.525-0.336
				c-0.124-0.177-0.172-0.392-0.133-0.605c0.068-0.389,0.403-0.67,0.798-0.67c0.047,0,0.095,0.004,0.142,0.012l2.978,0.525
				c0.213,0.037,0.398,0.155,0.524,0.333c0.123,0.178,0.172,0.394,0.134,0.607C14.086,25.719,13.751,26.002,13.356,26.002
				L13.356,26.002z M7.738,25.011c-0.047,0-0.094-0.004-0.142-0.013l-2.978-0.524c-0.441-0.077-0.736-0.5-0.658-0.94
				c0.068-0.389,0.404-0.671,0.798-0.671c0.048,0,0.095,0.004,0.143,0.013L7.878,23.4c0.214,0.037,0.4,0.155,0.524,0.334
				c0.124,0.178,0.172,0.393,0.134,0.605C8.468,24.729,8.132,25.011,7.738,25.011L7.738,25.011z M19.652,23.14
				c-0.046,0-0.093-0.004-0.141-0.013l-2.978-0.524c-0.214-0.037-0.399-0.155-0.524-0.333c-0.124-0.178-0.172-0.395-0.134-0.607
				c0.068-0.389,0.404-0.671,0.799-0.671c0.046,0,0.094,0.004,0.141,0.013l2.979,0.525c0.212,0.037,0.397,0.154,0.522,0.332
				s0.173,0.395,0.135,0.607C20.383,22.857,20.047,23.14,19.652,23.14L19.652,23.14z M14.035,22.148
				c-0.046,0-0.094-0.004-0.142-0.012l-2.978-0.524c-0.214-0.038-0.4-0.157-0.524-0.335s-0.171-0.393-0.133-0.605
				C10.326,20.283,10.662,20,11.056,20c0.047,0,0.095,0.005,0.143,0.014l2.977,0.524c0.214,0.037,0.4,0.155,0.524,0.333
				c0.125,0.178,0.173,0.395,0.135,0.607C14.765,21.867,14.43,22.148,14.035,22.148C14.035,22.148,14.035,22.148,14.035,22.148z
				 M8.417,21.158c-0.047,0-0.095-0.004-0.142-0.012l-2.978-0.525c-0.44-0.078-0.735-0.5-0.657-0.939
				c0.067-0.389,0.402-0.672,0.798-0.672c0.047,0,0.094,0.004,0.142,0.013l2.978,0.525c0.44,0.077,0.736,0.499,0.658,0.94
				C9.146,20.877,8.812,21.158,8.417,21.158L8.417,21.158z M1.953,20.881c-0.046,0-0.093-0.004-0.141-0.013
				c-0.214-0.037-0.399-0.155-0.523-0.333c-0.125-0.178-0.173-0.394-0.135-0.607L4.312,2.175C4.535,0.915,5.625,0,6.904,0
				c0.151,0,0.305,0.013,0.458,0.04l17.47,3.08c1.43,0.252,2.388,1.62,2.136,3.05l-1.047,5.937c-0.068,0.39-0.404,0.671-0.799,0.671
				c-0.047,0-0.094-0.004-0.142-0.012c-0.44-0.078-0.736-0.5-0.658-0.941l1.047-5.937c0.096-0.548-0.271-1.071-0.819-1.169
				L7.081,1.638c-0.06-0.011-0.118-0.015-0.176-0.015c-0.49,0-0.908,0.351-0.994,0.834L2.753,20.21
				C2.685,20.599,2.349,20.881,1.953,20.881z M20.333,19.287c-0.047,0-0.095-0.004-0.143-0.012l-2.977-0.525
				c-0.214-0.037-0.4-0.156-0.524-0.334s-0.173-0.393-0.134-0.606c0.067-0.389,0.403-0.671,0.798-0.671
				c0.047,0,0.094,0.004,0.142,0.013l2.978,0.524c0.213,0.037,0.398,0.156,0.522,0.334c0.126,0.178,0.174,0.393,0.136,0.607
				C21.062,19.006,20.727,19.287,20.333,19.287L20.333,19.287z M14.714,18.297c-0.046,0-0.094-0.004-0.142-0.012l-2.977-0.525
				c-0.214-0.037-0.399-0.156-0.524-0.334c-0.124-0.178-0.172-0.393-0.134-0.606c0.067-0.39,0.404-0.671,0.799-0.671
				c0.046,0,0.093,0.004,0.141,0.012l2.978,0.525c0.214,0.037,0.399,0.156,0.523,0.334c0.125,0.178,0.173,0.393,0.136,0.606
				C15.443,18.016,15.108,18.297,14.714,18.297z M9.097,17.307c-0.046,0-0.094-0.004-0.143-0.013L5.979,16.77
				c-0.215-0.037-0.4-0.156-0.525-0.334c-0.124-0.178-0.172-0.395-0.134-0.607c0.068-0.389,0.404-0.67,0.799-0.67
				c0.046,0,0.094,0.004,0.141,0.012l2.979,0.525c0.441,0.077,0.735,0.5,0.657,0.94C9.826,17.024,9.491,17.307,9.097,17.307
				C9.098,17.307,9.098,17.307,9.097,17.307z M21.229,14.254c-0.096,0-0.192-0.009-0.29-0.026L6.895,11.752
				c-0.904-0.16-1.511-1.025-1.351-1.93L6.35,5.248C6.49,4.449,7.18,3.87,7.989,3.87c0.096,0,0.193,0.009,0.291,0.026l14.044,2.477
				c0.905,0.16,1.511,1.025,1.352,1.93l-0.806,4.573C22.729,13.674,22.039,14.254,21.229,14.254z M7.99,5.494
				c-0.021,0-0.038,0.016-0.042,0.035l-0.807,4.574l14.08,2.526l0.856-4.608L7.99,5.494z"/>
		</g>
		<path fill="#02B843" d="M26.799,6.141l-1.046,5.937c-0.062,0.349-0.395,0.581-0.743,0.521c-0.348-0.062-0.581-0.395-0.52-0.744
			l1.048-5.936c0.112-0.641-0.317-1.254-0.958-1.368L7.11,1.469C6.47,1.357,5.856,1.786,5.743,2.428L2.585,20.18
			c-0.062,0.349-0.396,0.582-0.742,0.52c-0.349-0.061-0.582-0.393-0.521-0.742L4.481,2.205c0.235-1.337,1.516-2.232,2.852-1.996
			l17.47,3.079C26.139,3.524,27.035,4.803,26.799,6.141z M19.896,30.944l-17.468-3.08c-0.642-0.113-1.071-0.727-0.958-1.368
			l0.673-3.814c0.061-0.348-0.172-0.68-0.52-0.742c-0.349-0.061-0.682,0.172-0.742,0.52l-0.674,3.814
			c-0.235,1.338,0.66,2.616,1.997,2.853l17.47,3.08c1.337,0.236,2.616-0.659,2.852-1.996l2.763-15.507
			c0.062-0.349-0.172-0.682-0.52-0.742c-0.349-0.062-0.681,0.17-0.742,0.52l-2.763,15.507
			C21.152,30.629,20.538,31.057,19.896,30.944 M22.701,12.847c-0.143,0.812-0.92,1.356-1.731,1.212L6.925,11.583
			c-0.812-0.144-1.355-0.919-1.213-1.731l0.806-4.574C6.661,4.465,7.438,3.921,8.25,4.064l14.045,2.477
			c0.812,0.145,1.355,0.92,1.213,1.732L22.701,12.847z M22.246,8.051c0.02-0.116-0.058-0.227-0.173-0.248L8.027,5.326
			C7.911,5.306,7.8,5.384,7.78,5.5l-0.807,4.574c-0.021,0.115,0.058,0.227,0.174,0.246l14.045,2.478
			c0.115,0.021,0.227-0.058,0.247-0.174L22.246,8.051z M9.207,15.863l-2.978-0.525c-0.348-0.061-0.681,0.172-0.742,0.52
			c-0.062,0.35,0.171,0.682,0.521,0.744l2.978,0.523c0.348,0.062,0.68-0.171,0.741-0.52C9.788,16.258,9.555,15.925,9.207,15.863z
			 M14.825,16.854l-2.978-0.525c-0.348-0.062-0.681,0.171-0.742,0.521c-0.062,0.348,0.171,0.681,0.521,0.742l2.977,0.524
			c0.348,0.062,0.681-0.172,0.742-0.521C15.405,17.248,15.174,16.915,14.825,16.854z M20.442,17.845l-2.978-0.524
			c-0.348-0.062-0.681,0.17-0.741,0.52c-0.062,0.348,0.171,0.681,0.52,0.742l2.977,0.524c0.349,0.062,0.682-0.171,0.743-0.519
			C21.023,18.239,20.791,17.905,20.442,17.845z M8.528,19.716l-2.978-0.524c-0.349-0.062-0.682,0.17-0.742,0.52
			c-0.062,0.349,0.171,0.681,0.52,0.742l2.977,0.524c0.349,0.062,0.681-0.171,0.742-0.519C9.108,20.109,8.876,19.777,8.528,19.716z
			 M14.146,20.707l-2.977-0.525c-0.35-0.062-0.681,0.171-0.742,0.52c-0.062,0.349,0.171,0.682,0.52,0.742l2.978,0.524
			c0.348,0.062,0.68-0.171,0.741-0.519C14.727,21.101,14.494,20.768,14.146,20.707z M19.764,21.697l-2.978-0.525
			c-0.349-0.061-0.681,0.172-0.742,0.52c-0.062,0.35,0.171,0.682,0.521,0.742l2.977,0.525c0.349,0.061,0.681-0.172,0.741-0.52
			C20.345,22.091,20.111,21.758,19.764,21.697z M7.85,23.568l-2.979-0.525c-0.349-0.061-0.681,0.172-0.741,0.52
			c-0.062,0.35,0.171,0.682,0.519,0.743l2.978,0.524c0.349,0.062,0.68-0.172,0.742-0.52C8.43,23.963,8.197,23.629,7.85,23.568z
			 M13.467,24.559l-2.978-0.524c-0.349-0.062-0.681,0.171-0.742,0.52s0.171,0.681,0.52,0.742l2.978,0.524
			c0.349,0.062,0.681-0.171,0.741-0.52C14.048,24.953,13.814,24.62,13.467,24.559z M19.085,25.55l-2.978-0.525
			c-0.349-0.062-0.681,0.171-0.742,0.521c-0.062,0.348,0.171,0.68,0.52,0.742l2.978,0.523c0.348,0.062,0.68-0.17,0.742-0.519
			C19.665,25.943,19.433,25.611,19.085,25.55z"/>
	</g>
	<g>
		<path fill="#02B843" d="M88.434,28.404c-1.393,0-2.33-0.937-2.33-2.102c0-1.211,0.938-2.148,2.33-2.148
			c1.372,0,2.309,0.938,2.309,2.148C90.742,27.468,89.806,28.404,88.434,28.404z"/>
	</g>
	<g>
		<path fill="#363C40" d="M43.309,12.038h-7.165v3.929h6.336v3.652h-6.336v4.26h7.165v3.789H31.414V8.249h11.895V12.038z"/>
		<path fill="#363C40" d="M52.66,27.891c-4.122,0-6.889-2.297-7.11-5.284h4.675c0.111,1.079,1.079,1.798,2.38,1.798
			c1.217,0,1.854-0.553,1.854-1.245c0-2.489-8.409-0.691-8.409-6.362c0-2.628,2.24-4.786,6.278-4.786
			c3.984,0,6.197,2.214,6.502,5.257h-4.371c-0.139-1.051-0.941-1.743-2.269-1.743c-1.106,0-1.715,0.442-1.715,1.188
			c0,2.463,8.354,0.721,8.438,6.475C58.912,25.87,56.532,27.891,52.66,27.891z"/>
		<path fill="#363C40" d="M62.565,16.16h-1.882v-3.928h1.882V8.471h4.729v3.762h3.099v3.928h-3.099v6.197
			c0,0.912,0.388,1.3,1.438,1.3h1.688v4.011h-2.406c-3.209,0-5.449-1.355-5.449-5.366V16.16z"/>
		<path fill="#363C40" d="M83.7,12.232h5.117L79.136,35h-5.09l3.541-7.857l-6.28-14.91h5.283l3.569,9.654L83.7,12.232z"/>
	</g>
</g>
</svg>
