<?xml version="1.0" encoding="utf-8"?>
<!-- Generator: Adobe Illustrator 16.0.0, SVG Export Plug-In . SVG Version: 6.00 Build 0)  -->
<!DOCTYPE svg PUBLIC "-//W3C//DTD SVG 1.1//EN" "http://www.w3.org/Graphics/SVG/1.1/DTD/svg11.dtd">
<svg version="1.1" id="Layer_1" xmlns="http://www.w3.org/2000/svg" xmlns:xlink="http://www.w3.org/1999/xlink" x="0px" y="0px"
	 width="149px" height="35px" viewBox="0 0 149 35" enable-background="new 0 0 149 35" xml:space="preserve">
<g>
	<g>
		<g>
			<path fill="#363C40" d="M20.104,32.416c-0.152,0-0.306-0.014-0.46-0.041l-17.469-3.08c-1.43-0.253-2.388-1.621-2.136-3.05
				l0.674-3.815c0.067-0.389,0.403-0.671,0.799-0.671c0.046,0,0.094,0.004,0.141,0.012c0.44,0.079,0.735,0.501,0.659,0.941
				l-0.674,3.815c-0.097,0.548,0.271,1.071,0.819,1.169l17.469,3.08c0.06,0.011,0.117,0.016,0.176,0.016
				c0.49,0,0.908-0.352,0.994-0.834l2.763-15.508c0.068-0.388,0.403-0.671,0.799-0.671c0.047,0,0.094,0.005,0.142,0.013
				c0.44,0.078,0.735,0.501,0.658,0.941L22.695,30.24C22.474,31.501,21.384,32.416,20.104,32.416z M18.975,26.992
				c-0.047,0-0.095-0.004-0.143-0.013l-2.977-0.524c-0.441-0.077-0.737-0.499-0.659-0.94c0.069-0.389,0.404-0.671,0.799-0.671
				c0.047,0,0.095,0.004,0.143,0.013l2.977,0.525c0.44,0.077,0.735,0.498,0.659,0.94C19.704,26.711,19.368,26.992,18.975,26.992
				L18.975,26.992z M13.356,26.002c-0.047,0-0.095-0.005-0.142-0.013l-2.978-0.524c-0.214-0.038-0.4-0.157-0.525-0.335
				c-0.124-0.178-0.172-0.393-0.133-0.605c0.068-0.389,0.403-0.671,0.798-0.671c0.047,0,0.095,0.004,0.143,0.013l2.978,0.524
				c0.213,0.037,0.398,0.155,0.523,0.334c0.124,0.178,0.172,0.393,0.134,0.606C14.086,25.72,13.751,26.002,13.356,26.002
				L13.356,26.002z M7.739,25.011c-0.048,0-0.095-0.004-0.143-0.013l-2.978-0.523c-0.441-0.078-0.736-0.5-0.658-0.941
				c0.068-0.388,0.404-0.671,0.799-0.671c0.047,0,0.094,0.004,0.142,0.013L7.879,23.4c0.213,0.037,0.399,0.156,0.523,0.334
				s0.172,0.393,0.134,0.606C8.468,24.729,8.132,25.011,7.739,25.011L7.739,25.011z M19.653,23.141
				c-0.047,0-0.094-0.005-0.142-0.013l-2.978-0.524c-0.213-0.038-0.398-0.156-0.524-0.334c-0.124-0.178-0.172-0.394-0.134-0.606
				c0.068-0.389,0.404-0.672,0.799-0.672c0.047,0,0.094,0.005,0.142,0.013l2.978,0.525c0.212,0.037,0.397,0.155,0.523,0.333
				c0.124,0.178,0.172,0.394,0.134,0.607C20.383,22.858,20.047,23.141,19.653,23.141L19.653,23.141z M14.035,22.149
				c-0.046,0-0.094-0.004-0.142-0.013l-2.978-0.524c-0.214-0.037-0.4-0.156-0.523-0.334c-0.124-0.178-0.172-0.394-0.134-0.606
				c0.068-0.389,0.403-0.671,0.798-0.671c0.047,0,0.095,0.004,0.142,0.013l2.978,0.525c0.213,0.036,0.399,0.155,0.524,0.333
				c0.124,0.178,0.172,0.394,0.134,0.607C14.765,21.867,14.43,22.149,14.035,22.149C14.035,22.149,14.035,22.149,14.035,22.149z
				 M8.418,21.159c-0.048,0-0.095-0.004-0.143-0.013l-2.977-0.524c-0.441-0.078-0.736-0.5-0.658-0.94
				c0.067-0.389,0.403-0.671,0.798-0.671c0.047,0,0.095,0.004,0.143,0.013l2.977,0.524c0.44,0.078,0.736,0.5,0.658,0.94
				C9.147,20.877,8.812,21.159,8.418,21.159L8.418,21.159z M1.954,20.881c-0.047,0-0.094-0.004-0.142-0.013
				c-0.214-0.037-0.399-0.155-0.523-0.333c-0.125-0.178-0.173-0.394-0.135-0.606L4.312,2.176C4.535,0.915,5.625,0,6.904,0
				c0.151,0,0.305,0.014,0.458,0.04l17.47,3.08c1.431,0.253,2.388,1.621,2.136,3.05l-1.047,5.938
				c-0.068,0.389-0.404,0.671-0.799,0.671c-0.047,0-0.094-0.004-0.141-0.013c-0.441-0.077-0.737-0.499-0.659-0.94l1.047-5.938
				c0.097-0.547-0.271-1.071-0.819-1.169L7.081,1.638c-0.059-0.01-0.117-0.015-0.176-0.015c-0.49,0-0.908,0.352-0.993,0.835
				L2.753,20.211C2.686,20.599,2.349,20.881,1.954,20.881z M20.333,19.288c-0.047,0-0.095-0.004-0.143-0.013l-2.977-0.524
				c-0.214-0.038-0.4-0.156-0.524-0.334s-0.172-0.394-0.134-0.606c0.067-0.389,0.403-0.672,0.798-0.672
				c0.047,0,0.094,0.005,0.142,0.013l2.978,0.525c0.213,0.037,0.398,0.155,0.523,0.333s0.173,0.394,0.135,0.607
				C21.062,19.006,20.727,19.288,20.333,19.288L20.333,19.288z M14.714,18.298c-0.046,0-0.094-0.004-0.142-0.013l-2.977-0.524
				c-0.214-0.038-0.399-0.156-0.524-0.334c-0.124-0.178-0.172-0.394-0.134-0.606c0.067-0.39,0.404-0.672,0.799-0.672
				c0.046,0,0.094,0.004,0.141,0.013l2.978,0.525c0.214,0.037,0.399,0.155,0.523,0.334c0.125,0.177,0.173,0.393,0.136,0.605
				C15.444,18.016,15.108,18.298,14.714,18.298z M9.097,17.307c-0.046,0-0.094-0.004-0.143-0.013l-2.976-0.523
				c-0.214-0.038-0.4-0.156-0.525-0.335c-0.124-0.178-0.172-0.394-0.134-0.606c0.068-0.389,0.404-0.671,0.799-0.671
				c0.047,0,0.094,0.004,0.142,0.013l2.978,0.524c0.441,0.078,0.736,0.5,0.658,0.941C9.826,17.024,9.491,17.307,9.097,17.307
				L9.097,17.307z M21.229,14.254c-0.095,0-0.192-0.009-0.29-0.025L6.895,11.752c-0.904-0.16-1.511-1.025-1.351-1.93L6.35,5.248
				C6.49,4.45,7.181,3.871,7.99,3.871c0.095,0,0.192,0.009,0.29,0.026l14.044,2.476c0.905,0.16,1.511,1.026,1.353,1.93l-0.807,4.574
				C22.729,13.675,22.039,14.254,21.229,14.254z M7.99,5.495c-0.021,0-0.038,0.015-0.042,0.034l-0.807,4.574l14.08,2.526
				l0.856-4.608L7.99,5.495z"/>
		</g>
		<path fill="#363C40" d="M26.8,6.141l-1.047,5.937c-0.062,0.349-0.395,0.581-0.742,0.521c-0.349-0.062-0.582-0.395-0.521-0.743
			l1.048-5.937c0.113-0.641-0.316-1.254-0.958-1.367L7.11,1.47C6.47,1.357,5.856,1.787,5.743,2.429L2.585,20.181
			c-0.062,0.349-0.395,0.581-0.742,0.52c-0.349-0.062-0.582-0.394-0.521-0.742L4.481,2.205c0.235-1.336,1.516-2.231,2.852-1.996
			l17.47,3.08C26.139,3.524,27.035,4.804,26.8,6.141z M19.897,30.944l-17.469-3.08c-0.642-0.113-1.071-0.726-0.958-1.367
			l0.673-3.815c0.062-0.348-0.172-0.68-0.52-0.742c-0.349-0.061-0.682,0.172-0.742,0.52l-0.673,3.815
			c-0.236,1.337,0.66,2.616,1.996,2.853l17.47,3.08c1.337,0.236,2.616-0.659,2.852-1.997l2.763-15.507
			c0.062-0.349-0.171-0.681-0.519-0.742c-0.35-0.062-0.682,0.171-0.742,0.52l-2.764,15.507
			C21.152,30.629,20.538,31.058,19.897,30.944 M22.701,12.847c-0.143,0.812-0.92,1.356-1.731,1.213L6.925,11.584
			c-0.812-0.144-1.355-0.92-1.213-1.731l0.806-4.574C6.661,4.466,7.438,3.922,8.25,4.065l14.045,2.476
			c0.812,0.145,1.356,0.921,1.213,1.732L22.701,12.847z M22.246,8.051c0.021-0.115-0.058-0.227-0.173-0.247L8.028,5.326
			C7.911,5.306,7.801,5.384,7.78,5.5l-0.807,4.574c-0.021,0.115,0.058,0.228,0.174,0.247l14.045,2.478
			c0.115,0.02,0.228-0.059,0.247-0.175L22.246,8.051z M9.208,15.863L6.23,15.339c-0.349-0.062-0.681,0.171-0.743,0.52
			c-0.062,0.349,0.172,0.682,0.521,0.743l2.978,0.524c0.348,0.062,0.68-0.171,0.741-0.52S9.556,15.926,9.208,15.863z M14.825,16.854
			l-2.978-0.525c-0.348-0.062-0.681,0.172-0.742,0.521c-0.062,0.348,0.171,0.682,0.521,0.742l2.977,0.525
			c0.348,0.061,0.681-0.172,0.742-0.521C15.405,17.249,15.174,16.916,14.825,16.854z M20.442,17.845l-2.977-0.524
			c-0.349-0.062-0.681,0.171-0.742,0.52s0.171,0.681,0.52,0.743l2.978,0.523c0.348,0.062,0.681-0.171,0.742-0.519
			C21.023,18.239,20.791,17.905,20.442,17.845z M8.528,19.717l-2.978-0.525c-0.349-0.062-0.682,0.171-0.742,0.52
			c-0.062,0.349,0.172,0.681,0.52,0.742l2.977,0.525c0.35,0.062,0.681-0.172,0.743-0.52C9.108,20.11,8.876,19.777,8.528,19.717z
			 M14.146,20.707l-2.977-0.525c-0.35-0.062-0.681,0.171-0.742,0.521c-0.062,0.349,0.171,0.681,0.52,0.742l2.978,0.524
			c0.349,0.062,0.68-0.171,0.741-0.52C14.727,21.102,14.494,20.768,14.146,20.707z M19.765,21.698l-2.979-0.525
			c-0.349-0.062-0.681,0.171-0.742,0.52s0.172,0.681,0.521,0.742l2.977,0.524c0.349,0.062,0.681-0.171,0.741-0.52
			C20.345,22.091,20.111,21.759,19.765,21.698z M7.85,23.568l-2.979-0.524c-0.348-0.062-0.681,0.171-0.741,0.52
			c-0.062,0.349,0.171,0.681,0.519,0.742l2.978,0.524c0.349,0.062,0.681-0.171,0.742-0.519C8.43,23.963,8.197,23.63,7.85,23.568z
			 M13.467,24.56l-2.978-0.525c-0.349-0.062-0.681,0.172-0.742,0.521c-0.062,0.348,0.171,0.68,0.52,0.741l2.978,0.525
			c0.349,0.062,0.681-0.172,0.742-0.52C14.048,24.953,13.815,24.62,13.467,24.56z M19.085,25.55l-2.978-0.525
			c-0.349-0.061-0.681,0.172-0.742,0.521c-0.062,0.348,0.172,0.681,0.52,0.742l2.978,0.524c0.349,0.062,0.68-0.171,0.742-0.52
			C19.665,25.944,19.433,25.611,19.085,25.55z"/>
	</g>
	<g>
		<path fill="#363C40" d="M88.434,28.405c-1.393,0-2.33-0.937-2.33-2.102c0-1.212,0.938-2.148,2.33-2.148
			c1.372,0,2.309,0.937,2.309,2.148C90.742,27.469,89.806,28.405,88.434,28.405z"/>
	</g>
	<g>
		<path fill="#363C40" d="M43.309,12.039h-7.165v3.929h6.336v3.651h-6.336v4.26h7.165v3.79H31.414V8.249h11.895V12.039z"/>
		<path fill="#363C40" d="M52.66,27.891c-4.122,0-6.889-2.297-7.109-5.284h4.675c0.111,1.079,1.079,1.799,2.379,1.799
			c1.217,0,1.854-0.554,1.854-1.246c0-2.489-8.409-0.69-8.409-6.362c0-2.628,2.24-4.785,6.278-4.785
			c3.984,0,6.197,2.213,6.502,5.256h-4.371c-0.138-1.051-0.94-1.743-2.269-1.743c-1.106,0-1.715,0.443-1.715,1.189
			c0,2.462,8.354,0.72,8.438,6.474C58.912,25.871,56.533,27.891,52.66,27.891z"/>
		<path fill="#363C40" d="M62.565,16.161h-1.882v-3.929h1.882V8.471h4.729v3.762h3.099v3.929h-3.099v6.196
			c0,0.913,0.388,1.301,1.438,1.301h1.688v4.011h-2.407c-3.209,0-5.449-1.355-5.449-5.366V16.161z"/>
		<path fill="#363C40" d="M83.7,12.232h5.117L79.136,35h-5.09l3.541-7.856l-6.28-14.911h5.284l3.568,9.655L83.7,12.232z"/>
	</g>
</g>
</svg>
